<mxfile host="Electron" modified="2023-07-18T02:22:04.373Z" agent="Mozilla/5.0 (Macintosh; Intel Mac OS X 10_15_7) AppleWebKit/537.36 (KHTML, like Gecko) draw.io/21.5.1 Chrome/112.0.5615.204 Electron/24.6.0 Safari/537.36" etag="hIp3G4rvYIVplvKru5IV" version="21.5.1" type="device">
  <diagram name="第 1 页" id="AI4fHX4XVxSnLDbLUe6b">
    <mxGraphModel dx="1311" dy="933" grid="0" gridSize="10" guides="1" tooltips="1" connect="1" arrows="1" fold="1" page="0" pageScale="1" pageWidth="827" pageHeight="1169" math="0" shadow="0">
      <root>
        <mxCell id="0" />
        <mxCell id="1" parent="0" />
        <mxCell id="s1yX9-MlooFVN3mGVqP5-1" value="wasm_engine" style="shape=umlLifeline;perimeter=lifelinePerimeter;whiteSpace=wrap;html=1;container=1;collapsible=0;recursiveResize=0;outlineConnect=0;fontColor=#000000;" vertex="1" parent="1">
          <mxGeometry x="170" y="240" width="130" height="1210" as="geometry" />
        </mxCell>
        <mxCell id="s1yX9-MlooFVN3mGVqP5-2" value="" style="html=1;points=[];perimeter=orthogonalPerimeter;fontColor=#FF0000;" vertex="1" parent="s1yX9-MlooFVN3mGVqP5-1">
          <mxGeometry x="60" y="440" width="10" height="130" as="geometry" />
        </mxCell>
        <mxCell id="s1yX9-MlooFVN3mGVqP5-3" value="" style="html=1;points=[];perimeter=orthogonalPerimeter;fontColor=#FF0000;" vertex="1" parent="s1yX9-MlooFVN3mGVqP5-1">
          <mxGeometry x="60" y="680" width="10" height="130" as="geometry" />
        </mxCell>
        <mxCell id="s1yX9-MlooFVN3mGVqP5-4" value="" style="html=1;points=[];perimeter=orthogonalPerimeter;fontColor=#FF0000;" vertex="1" parent="s1yX9-MlooFVN3mGVqP5-1">
          <mxGeometry x="60" y="1070" width="10" height="140" as="geometry" />
        </mxCell>
        <mxCell id="s1yX9-MlooFVN3mGVqP5-5" value="" style="html=1;points=[];perimeter=orthogonalPerimeter;fontColor=#FF0000;" vertex="1" parent="s1yX9-MlooFVN3mGVqP5-1">
          <mxGeometry x="60" y="880" width="10" height="130" as="geometry" />
        </mxCell>
        <mxCell id="s1yX9-MlooFVN3mGVqP5-6" value="&lt;span style=&quot;font-size: 12px; text-align: center; background-color: rgb(248, 249, 250);&quot;&gt;wasm_engine_new&lt;/span&gt;" style="endArrow=block;endFill=1;html=1;edgeStyle=orthogonalEdgeStyle;align=left;verticalAlign=top;fontColor=#000000;" edge="1" parent="1">
          <mxGeometry x="-1" relative="1" as="geometry">
            <mxPoint x="60" y="310" as="sourcePoint" />
            <mxPoint x="236" y="310" as="targetPoint" />
          </mxGeometry>
        </mxCell>
        <mxCell id="s1yX9-MlooFVN3mGVqP5-7" value="1" style="resizable=0;html=1;align=left;verticalAlign=bottom;labelBackgroundColor=#ffffff;fontSize=10;" connectable="0" vertex="1" parent="s1yX9-MlooFVN3mGVqP5-6">
          <mxGeometry x="-1" relative="1" as="geometry" />
        </mxCell>
        <mxCell id="s1yX9-MlooFVN3mGVqP5-8" value="wasm_runtime" style="shape=umlLifeline;perimeter=lifelinePerimeter;whiteSpace=wrap;html=1;container=1;collapsible=0;recursiveResize=0;outlineConnect=0;fontColor=#000000;" vertex="1" parent="1">
          <mxGeometry x="384" y="240" width="130" height="1220" as="geometry" />
        </mxCell>
        <mxCell id="s1yX9-MlooFVN3mGVqP5-9" value="" style="html=1;points=[];perimeter=orthogonalPerimeter;fontColor=#000000;" vertex="1" parent="s1yX9-MlooFVN3mGVqP5-8">
          <mxGeometry x="60" y="200" width="10" height="50" as="geometry" />
        </mxCell>
        <mxCell id="s1yX9-MlooFVN3mGVqP5-10" value="wasm_runtime_env_init" style="edgeStyle=orthogonalEdgeStyle;html=1;align=left;spacingLeft=2;endArrow=block;rounded=0;entryX=1;entryY=0;fontColor=#000000;" edge="1" parent="s1yX9-MlooFVN3mGVqP5-8" target="s1yX9-MlooFVN3mGVqP5-9">
          <mxGeometry relative="1" as="geometry">
            <mxPoint x="65" y="190" as="sourcePoint" />
            <Array as="points">
              <mxPoint x="90" y="190" />
            </Array>
          </mxGeometry>
        </mxCell>
        <mxCell id="s1yX9-MlooFVN3mGVqP5-11" value="" style="html=1;points=[];perimeter=orthogonalPerimeter;fontColor=#000000;" vertex="1" parent="s1yX9-MlooFVN3mGVqP5-8">
          <mxGeometry x="60" y="140" width="10" height="40" as="geometry" />
        </mxCell>
        <mxCell id="s1yX9-MlooFVN3mGVqP5-12" value="&lt;div&gt;&lt;span style=&quot;font-size: 11px;&quot;&gt;wasm_runtime_memory_init&lt;/span&gt;&lt;/div&gt;" style="edgeStyle=orthogonalEdgeStyle;html=1;align=left;spacingLeft=2;endArrow=block;rounded=0;entryX=1;entryY=0;fontColor=#000000;" edge="1" parent="s1yX9-MlooFVN3mGVqP5-8" target="s1yX9-MlooFVN3mGVqP5-11">
          <mxGeometry relative="1" as="geometry">
            <mxPoint x="65" y="120" as="sourcePoint" />
            <Array as="points">
              <mxPoint x="90" y="120" />
            </Array>
          </mxGeometry>
        </mxCell>
        <mxCell id="s1yX9-MlooFVN3mGVqP5-13" value="" style="html=1;points=[];perimeter=orthogonalPerimeter;" vertex="1" parent="s1yX9-MlooFVN3mGVqP5-8">
          <mxGeometry x="60" y="460" width="10" height="80" as="geometry" />
        </mxCell>
        <mxCell id="s1yX9-MlooFVN3mGVqP5-14" value="&lt;font&gt;wasm_runtime_load&lt;/font&gt;" style="html=1;verticalAlign=bottom;endArrow=block;fontColor=#FF0000;exitX=1.1;exitY=0.5;exitDx=0;exitDy=0;exitPerimeter=0;" edge="1" parent="s1yX9-MlooFVN3mGVqP5-8">
          <mxGeometry x="-0.096" y="10" relative="1" as="geometry">
            <mxPoint x="-47.5" y="470" as="sourcePoint" />
            <mxPoint x="60" y="470" as="targetPoint" />
            <mxPoint as="offset" />
          </mxGeometry>
        </mxCell>
        <mxCell id="s1yX9-MlooFVN3mGVqP5-15" value="&lt;div style=&quot;text-align: center;&quot;&gt;&lt;font color=&quot;#ff0000&quot;&gt;wasm_runtime_full_init&lt;/font&gt;&lt;/div&gt;" style="endArrow=block;endFill=1;html=1;edgeStyle=orthogonalEdgeStyle;align=left;verticalAlign=top;fontColor=#000000;exitX=0.5;exitY=0.333;exitDx=0;exitDy=0;exitPerimeter=0;" edge="1" parent="1">
          <mxGeometry x="-0.7076" relative="1" as="geometry">
            <mxPoint x="235" y="350" as="sourcePoint" />
            <mxPoint x="449" y="350" as="targetPoint" />
            <mxPoint as="offset" />
          </mxGeometry>
        </mxCell>
        <mxCell id="s1yX9-MlooFVN3mGVqP5-16" value="2" style="resizable=0;html=1;align=left;verticalAlign=bottom;labelBackgroundColor=#ffffff;fontSize=10;" connectable="0" vertex="1" parent="s1yX9-MlooFVN3mGVqP5-15">
          <mxGeometry x="-1" relative="1" as="geometry">
            <mxPoint x="-165" y="180" as="offset" />
          </mxGeometry>
        </mxCell>
        <mxCell id="s1yX9-MlooFVN3mGVqP5-17" value="wasm_store" style="shape=umlLifeline;perimeter=lifelinePerimeter;whiteSpace=wrap;html=1;container=1;collapsible=0;recursiveResize=0;outlineConnect=0;fontColor=#000000;" vertex="1" parent="1">
          <mxGeometry x="570" y="240" width="130" height="410" as="geometry" />
        </mxCell>
        <mxCell id="s1yX9-MlooFVN3mGVqP5-18" value="" style="html=1;points=[];perimeter=orthogonalPerimeter;" vertex="1" parent="1">
          <mxGeometry x="630" y="535" width="10" height="35" as="geometry" />
        </mxCell>
        <mxCell id="s1yX9-MlooFVN3mGVqP5-19" value="wasm_store_new(engine)" style="html=1;verticalAlign=bottom;endArrow=block;entryX=0;entryY=0;" edge="1" parent="1" target="s1yX9-MlooFVN3mGVqP5-18">
          <mxGeometry x="-0.6471" y="5" relative="1" as="geometry">
            <mxPoint x="60" y="535" as="sourcePoint" />
            <mxPoint as="offset" />
          </mxGeometry>
        </mxCell>
        <mxCell id="s1yX9-MlooFVN3mGVqP5-20" value="wasm_module" style="shape=umlLifeline;perimeter=lifelinePerimeter;whiteSpace=wrap;html=1;container=1;collapsible=0;recursiveResize=0;outlineConnect=0;fontColor=#000000;" vertex="1" parent="1">
          <mxGeometry x="260" y="600" width="130" height="220" as="geometry" />
        </mxCell>
        <mxCell id="s1yX9-MlooFVN3mGVqP5-21" value="" style="html=1;points=[];perimeter=orthogonalPerimeter;fontColor=#FF0000;" vertex="1" parent="s1yX9-MlooFVN3mGVqP5-20">
          <mxGeometry x="60" y="80" width="10" height="120" as="geometry" />
        </mxCell>
        <mxCell id="s1yX9-MlooFVN3mGVqP5-22" value="&lt;span style=&quot;font-size: 12px; text-align: center; background-color: rgb(248, 249, 250);&quot;&gt;wasm_module_new&lt;br /&gt;&lt;/span&gt;" style="endArrow=block;endFill=1;html=1;edgeStyle=orthogonalEdgeStyle;align=left;verticalAlign=top;fontColor=#000000;" edge="1" parent="1">
          <mxGeometry x="-1" relative="1" as="geometry">
            <mxPoint x="60" y="680" as="sourcePoint" />
            <mxPoint x="320" y="680" as="targetPoint" />
          </mxGeometry>
        </mxCell>
        <mxCell id="s1yX9-MlooFVN3mGVqP5-23" value="3" style="resizable=0;html=1;align=left;verticalAlign=bottom;labelBackgroundColor=#ffffff;fontSize=10;" connectable="0" vertex="1" parent="s1yX9-MlooFVN3mGVqP5-22">
          <mxGeometry x="-1" relative="1" as="geometry" />
        </mxCell>
        <mxCell id="s1yX9-MlooFVN3mGVqP5-24" value="module" style="html=1;verticalAlign=bottom;endArrow=open;dashed=1;endSize=8;exitX=0;exitY=0.95;" edge="1" parent="1" source="s1yX9-MlooFVN3mGVqP5-13" target="s1yX9-MlooFVN3mGVqP5-20">
          <mxGeometry relative="1" as="geometry">
            <mxPoint x="374" y="776" as="targetPoint" />
          </mxGeometry>
        </mxCell>
        <mxCell id="s1yX9-MlooFVN3mGVqP5-25" value="" style="html=1;points=[];perimeter=orthogonalPerimeter;" vertex="1" parent="1">
          <mxGeometry x="444" y="940" width="10" height="80" as="geometry" />
        </mxCell>
        <mxCell id="s1yX9-MlooFVN3mGVqP5-26" value="&lt;font&gt;wasm_runtime_instantiate&lt;/font&gt;" style="html=1;verticalAlign=bottom;endArrow=block;fontColor=#FF0000;exitX=1.1;exitY=0.5;exitDx=0;exitDy=0;exitPerimeter=0;" edge="1" parent="1">
          <mxGeometry x="0.3674" y="10" relative="1" as="geometry">
            <mxPoint x="336.5" y="950" as="sourcePoint" />
            <mxPoint x="444" y="950" as="targetPoint" />
            <mxPoint x="1" as="offset" />
          </mxGeometry>
        </mxCell>
        <mxCell id="s1yX9-MlooFVN3mGVqP5-27" value="wasm_instance" style="shape=umlLifeline;perimeter=lifelinePerimeter;whiteSpace=wrap;html=1;container=1;collapsible=0;recursiveResize=0;outlineConnect=0;fontColor=#000000;" vertex="1" parent="1">
          <mxGeometry x="260" y="840" width="130" height="220" as="geometry" />
        </mxCell>
        <mxCell id="s1yX9-MlooFVN3mGVqP5-28" value="" style="html=1;points=[];perimeter=orthogonalPerimeter;fontColor=#FF0000;" vertex="1" parent="s1yX9-MlooFVN3mGVqP5-27">
          <mxGeometry x="60" y="80" width="10" height="120" as="geometry" />
        </mxCell>
        <mxCell id="s1yX9-MlooFVN3mGVqP5-29" value="&lt;span style=&quot;font-size: 12px; text-align: center; background-color: rgb(248, 249, 250);&quot;&gt;wasm_instance_new&lt;br /&gt;&lt;/span&gt;" style="endArrow=block;endFill=1;html=1;edgeStyle=orthogonalEdgeStyle;align=left;verticalAlign=top;fontColor=#000000;" edge="1" parent="1">
          <mxGeometry x="-1" relative="1" as="geometry">
            <mxPoint x="60" y="920" as="sourcePoint" />
            <mxPoint x="320" y="920" as="targetPoint" />
          </mxGeometry>
        </mxCell>
        <mxCell id="s1yX9-MlooFVN3mGVqP5-30" value="4" style="resizable=0;html=1;align=left;verticalAlign=bottom;labelBackgroundColor=#ffffff;fontSize=10;" connectable="0" vertex="1" parent="s1yX9-MlooFVN3mGVqP5-29">
          <mxGeometry x="-1" relative="1" as="geometry" />
        </mxCell>
        <mxCell id="s1yX9-MlooFVN3mGVqP5-31" value="instance" style="html=1;verticalAlign=bottom;endArrow=open;dashed=1;endSize=8;exitX=0;exitY=0.95;" edge="1" parent="1" source="s1yX9-MlooFVN3mGVqP5-25" target="s1yX9-MlooFVN3mGVqP5-27">
          <mxGeometry relative="1" as="geometry">
            <mxPoint x="374" y="1016" as="targetPoint" />
          </mxGeometry>
        </mxCell>
        <mxCell id="s1yX9-MlooFVN3mGVqP5-32" value="" style="html=1;points=[];perimeter=orthogonalPerimeter;fontColor=#FF0000;" vertex="1" parent="1">
          <mxGeometry x="230" y="350" width="10" height="140" as="geometry" />
        </mxCell>
        <mxCell id="s1yX9-MlooFVN3mGVqP5-33" value="" style="html=1;points=[];perimeter=orthogonalPerimeter;fontColor=#FF0000;" vertex="1" parent="1">
          <mxGeometry x="230" y="535" width="10" height="45" as="geometry" />
        </mxCell>
        <mxCell id="s1yX9-MlooFVN3mGVqP5-34" value="store" style="html=1;verticalAlign=bottom;endArrow=open;dashed=1;endSize=8;exitX=0;exitY=0.95;" edge="1" parent="1">
          <mxGeometry x="0.871" y="-11" relative="1" as="geometry">
            <mxPoint x="240" y="573" as="targetPoint" />
            <mxPoint as="offset" />
            <mxPoint x="630" y="570" as="sourcePoint" />
          </mxGeometry>
        </mxCell>
        <mxCell id="s1yX9-MlooFVN3mGVqP5-35" value="instance" style="html=1;verticalAlign=bottom;endArrow=open;dashed=1;endSize=8;" edge="1" parent="1">
          <mxGeometry relative="1" as="geometry">
            <mxPoint x="240" y="1040" as="targetPoint" />
            <mxPoint x="320" y="1040" as="sourcePoint" />
          </mxGeometry>
        </mxCell>
        <mxCell id="s1yX9-MlooFVN3mGVqP5-36" value="module" style="html=1;verticalAlign=bottom;endArrow=open;dashed=1;endSize=8;" edge="1" parent="1">
          <mxGeometry relative="1" as="geometry">
            <mxPoint x="240" y="800" as="targetPoint" />
            <mxPoint x="320" y="800" as="sourcePoint" />
          </mxGeometry>
        </mxCell>
        <mxCell id="s1yX9-MlooFVN3mGVqP5-37" value="engine" style="html=1;verticalAlign=bottom;endArrow=open;dashed=1;endSize=8;exitX=0.5;exitY=1;exitDx=0;exitDy=0;exitPerimeter=0;entryX=1.3;entryY=1.015;entryDx=0;entryDy=0;entryPerimeter=0;" edge="1" parent="1" source="s1yX9-MlooFVN3mGVqP5-9" target="s1yX9-MlooFVN3mGVqP5-32">
          <mxGeometry x="0.3485" y="-11" relative="1" as="geometry">
            <mxPoint x="240" y="472.96202531645577" as="targetPoint" />
            <mxPoint as="offset" />
            <mxPoint x="630" y="470" as="sourcePoint" />
          </mxGeometry>
        </mxCell>
        <mxCell id="s1yX9-MlooFVN3mGVqP5-38" value="" style="html=1;points=[];perimeter=orthogonalPerimeter;" vertex="1" parent="1">
          <mxGeometry x="444" y="1330" width="10" height="110" as="geometry" />
        </mxCell>
        <mxCell id="s1yX9-MlooFVN3mGVqP5-39" value="&lt;font&gt;wasm_runtime_create_exec_env_singleton&lt;/font&gt;" style="html=1;verticalAlign=bottom;endArrow=block;fontColor=#FF0000;" edge="1" parent="1">
          <mxGeometry x="0.1026" y="10" relative="1" as="geometry">
            <mxPoint x="244.5" y="1340" as="sourcePoint" />
            <mxPoint x="440" y="1340" as="targetPoint" />
            <mxPoint x="1" as="offset" />
          </mxGeometry>
        </mxCell>
        <mxCell id="s1yX9-MlooFVN3mGVqP5-40" value="&lt;font&gt;&lt;span style=&quot;font-size: 11px;&quot;&gt;wasm_func_call&lt;/span&gt;&lt;/font&gt;" style="endArrow=block;endFill=1;html=1;edgeStyle=orthogonalEdgeStyle;align=left;verticalAlign=top;fontColor=#000000;strokeColor=#000000;" edge="1" parent="1">
          <mxGeometry x="-1" relative="1" as="geometry">
            <mxPoint x="60" y="1310" as="sourcePoint" />
            <mxPoint x="230" y="1310" as="targetPoint" />
          </mxGeometry>
        </mxCell>
        <mxCell id="s1yX9-MlooFVN3mGVqP5-41" value="5" style="resizable=0;html=1;align=left;verticalAlign=bottom;labelBackgroundColor=#ffffff;fontSize=10;" connectable="0" vertex="1" parent="s1yX9-MlooFVN3mGVqP5-40">
          <mxGeometry x="-1" relative="1" as="geometry" />
        </mxCell>
        <mxCell id="s1yX9-MlooFVN3mGVqP5-42" value="" style="html=1;points=[];perimeter=orthogonalPerimeter;" vertex="1" parent="1">
          <mxGeometry x="444" y="1140" width="10" height="80" as="geometry" />
        </mxCell>
        <mxCell id="s1yX9-MlooFVN3mGVqP5-43" value="&lt;font&gt;wasm_runtime_create_exec_env&lt;/font&gt;" style="html=1;verticalAlign=bottom;endArrow=block;fontColor=#FF0000;" edge="1" parent="1">
          <mxGeometry x="0.1026" y="10" relative="1" as="geometry">
            <mxPoint x="234.5" y="1150" as="sourcePoint" />
            <mxPoint x="444" y="1150" as="targetPoint" />
            <mxPoint x="1" as="offset" />
          </mxGeometry>
        </mxCell>
        <mxCell id="s1yX9-MlooFVN3mGVqP5-44" value="wasm_exec_env" style="shape=umlLifeline;perimeter=lifelinePerimeter;whiteSpace=wrap;html=1;container=1;collapsible=0;recursiveResize=0;outlineConnect=0;fontColor=#000000;" vertex="1" parent="1">
          <mxGeometry x="550" y="1040" width="130" height="440" as="geometry" />
        </mxCell>
        <mxCell id="s1yX9-MlooFVN3mGVqP5-45" value="" style="html=1;points=[];perimeter=orthogonalPerimeter;fontColor=#FF0000;" vertex="1" parent="s1yX9-MlooFVN3mGVqP5-44">
          <mxGeometry x="60" y="80" width="10" height="120" as="geometry" />
        </mxCell>
        <mxCell id="s1yX9-MlooFVN3mGVqP5-46" value="" style="html=1;points=[];perimeter=orthogonalPerimeter;fontColor=#FF0000;" vertex="1" parent="s1yX9-MlooFVN3mGVqP5-44">
          <mxGeometry x="60" y="290" width="10" height="60" as="geometry" />
        </mxCell>
        <mxCell id="s1yX9-MlooFVN3mGVqP5-47" value="&lt;font&gt;wasm_exec_env_create&lt;/font&gt;" style="html=1;verticalAlign=bottom;endArrow=block;fontColor=#FF0000;" edge="1" parent="1">
          <mxGeometry x="0.1026" y="10" relative="1" as="geometry">
            <mxPoint x="454" y="1350" as="sourcePoint" />
            <mxPoint x="610" y="1350" as="targetPoint" />
            <mxPoint x="1" as="offset" />
          </mxGeometry>
        </mxCell>
        <mxCell id="s1yX9-MlooFVN3mGVqP5-48" value="" style="html=1;verticalAlign=bottom;endArrow=open;dashed=1;endSize=8;" edge="1" parent="1">
          <mxGeometry relative="1" as="geometry">
            <mxPoint x="454" y="1380" as="targetPoint" />
            <mxPoint x="610" y="1380" as="sourcePoint" />
          </mxGeometry>
        </mxCell>
        <mxCell id="s1yX9-MlooFVN3mGVqP5-49" value="exec_env" style="edgeLabel;html=1;align=center;verticalAlign=middle;resizable=0;points=[];fontColor=#000000;" connectable="0" vertex="1" parent="s1yX9-MlooFVN3mGVqP5-48">
          <mxGeometry x="0.1667" y="2" relative="1" as="geometry">
            <mxPoint x="11" y="8" as="offset" />
          </mxGeometry>
        </mxCell>
        <mxCell id="s1yX9-MlooFVN3mGVqP5-50" value="&lt;font&gt;wasm_runtime_call_wasm(env)&lt;/font&gt;" style="html=1;verticalAlign=bottom;endArrow=block;fontColor=#FF0000;" edge="1" parent="1">
          <mxGeometry y="10" relative="1" as="geometry">
            <mxPoint x="240" y="1430" as="sourcePoint" />
            <mxPoint x="440" y="1430" as="targetPoint" />
            <mxPoint as="offset" />
          </mxGeometry>
        </mxCell>
        <mxCell id="s1yX9-MlooFVN3mGVqP5-51" value="" style="html=1;verticalAlign=bottom;endArrow=open;dashed=1;endSize=8;" edge="1" parent="1" source="s1yX9-MlooFVN3mGVqP5-8">
          <mxGeometry relative="1" as="geometry">
            <mxPoint x="240" y="1220" as="targetPoint" />
            <mxPoint x="396" y="1220" as="sourcePoint" />
          </mxGeometry>
        </mxCell>
        <mxCell id="s1yX9-MlooFVN3mGVqP5-52" value="exec_env" style="edgeLabel;html=1;align=center;verticalAlign=middle;resizable=0;points=[];fontColor=#000000;" connectable="0" vertex="1" parent="s1yX9-MlooFVN3mGVqP5-51">
          <mxGeometry x="0.1667" y="2" relative="1" as="geometry">
            <mxPoint x="11" y="8" as="offset" />
          </mxGeometry>
        </mxCell>
        <mxCell id="s1yX9-MlooFVN3mGVqP5-53" value="" style="html=1;verticalAlign=bottom;endArrow=open;dashed=1;endSize=8;" edge="1" parent="1">
          <mxGeometry relative="1" as="geometry">
            <mxPoint x="240" y="1370" as="targetPoint" />
            <mxPoint x="448.5" y="1370" as="sourcePoint" />
          </mxGeometry>
        </mxCell>
        <mxCell id="s1yX9-MlooFVN3mGVqP5-54" value="exec_env" style="edgeLabel;html=1;align=center;verticalAlign=middle;resizable=0;points=[];fontColor=#000000;" connectable="0" vertex="1" parent="s1yX9-MlooFVN3mGVqP5-53">
          <mxGeometry x="0.1667" y="2" relative="1" as="geometry">
            <mxPoint x="11" y="8" as="offset" />
          </mxGeometry>
        </mxCell>
        <mxCell id="s1yX9-MlooFVN3mGVqP5-55" value="" style="html=1;verticalAlign=bottom;endArrow=open;dashed=1;endSize=8;" edge="1" parent="1">
          <mxGeometry relative="1" as="geometry">
            <mxPoint x="454" y="1210" as="targetPoint" />
            <mxPoint x="610" y="1210" as="sourcePoint" />
          </mxGeometry>
        </mxCell>
        <mxCell id="s1yX9-MlooFVN3mGVqP5-56" value="exec_env" style="edgeLabel;html=1;align=center;verticalAlign=middle;resizable=0;points=[];fontColor=#000000;" connectable="0" vertex="1" parent="s1yX9-MlooFVN3mGVqP5-55">
          <mxGeometry x="0.1667" y="2" relative="1" as="geometry">
            <mxPoint x="11" y="8" as="offset" />
          </mxGeometry>
        </mxCell>
        <mxCell id="s1yX9-MlooFVN3mGVqP5-57" value="&lt;font&gt;wasm_exec_env_create&lt;/font&gt;" style="html=1;verticalAlign=bottom;endArrow=block;fontColor=#FF0000;" edge="1" parent="1">
          <mxGeometry x="0.1026" y="10" relative="1" as="geometry">
            <mxPoint x="454" y="1159" as="sourcePoint" />
            <mxPoint x="610" y="1159" as="targetPoint" />
            <mxPoint x="1" as="offset" />
          </mxGeometry>
        </mxCell>
        <mxCell id="s1yX9-MlooFVN3mGVqP5-58" value="wasm_native_init" style="edgeStyle=orthogonalEdgeStyle;html=1;align=left;spacingLeft=2;endArrow=block;rounded=0;entryX=1;entryY=0;" edge="1" parent="1">
          <mxGeometry x="0.1475" relative="1" as="geometry">
            <mxPoint x="454" y="450" as="sourcePoint" />
            <Array as="points">
              <mxPoint x="479" y="450" />
            </Array>
            <mxPoint as="offset" />
            <mxPoint x="463" y="470" as="targetPoint" />
          </mxGeometry>
        </mxCell>
        <mxCell id="s1yX9-MlooFVN3mGVqP5-59" value="" style="html=1;points=[];perimeter=orthogonalPerimeter;" vertex="1" parent="1">
          <mxGeometry x="454" y="470" width="10" height="10" as="geometry" />
        </mxCell>
        <mxCell id="s1yX9-MlooFVN3mGVqP5-60" value="wasm_c_api" style="shape=umlLifeline;perimeter=lifelinePerimeter;whiteSpace=wrap;html=1;container=1;collapsible=0;recursiveResize=0;outlineConnect=0;" vertex="1" parent="1">
          <mxGeometry y="240" width="100" height="1160" as="geometry" />
        </mxCell>
      </root>
    </mxGraphModel>
  </diagram>
</mxfile>
